<svg xmlns="http://www.w3.org/2000/svg" viewBox="0 0 1500 500" width="1500" height="500">
  <defs>
    <linearGradient id="bg" x1="0" y1="0" x2="0" y2="1">
      <stop offset="0%" stop-color="#faf7ee"/>
      <stop offset="100%" stop-color="#f0e8d4"/>
    </linearGradient>
  </defs>
  <rect width="1500" height="500" fill="url(#bg)"/>
  <rect x="0" y="0" width="1500" height="6" fill="#15110d"/>
  <text x="80" y="180" font-family="Iowan Old Style, Charter, Georgia, serif" font-size="100" font-weight="800" fill="#15110d" letter-spacing="-3">NowServingTO</text>
  <text x="80" y="265" font-family="Iowan Old Style, Charter, Georgia, serif" font-size="40" font-style="italic" fill="#7a746a">Toronto's <tspan font-weight="800" font-style="normal" fill="#c83624">newest</tspan> restaurants — every cuisine, every morning.</text>
  <g transform="translate(80,360)">
    <rect width="14" height="14" fill="#c83624"/>
    <text x="28" y="13" font-family="-apple-system,sans-serif" font-size="20" fill="#45403a">Italian</text>
    <rect x="120" width="14" height="14" fill="#1a8a5a"/>
    <text x="148" y="13" font-family="-apple-system,sans-serif" font-size="20" fill="#45403a">Caribbean</text>
    <rect x="285" width="14" height="14" fill="#a0522d"/>
    <text x="313" y="13" font-family="-apple-system,sans-serif" font-size="20" fill="#45403a">Ethiopian</text>
    <rect x="450" width="14" height="14" fill="#8a5d20"/>
    <text x="478" y="13" font-family="-apple-system,sans-serif" font-size="20" fill="#45403a">Tamil</text>
    <rect x="555" width="14" height="14" fill="#e08226"/>
    <text x="583" y="13" font-family="-apple-system,sans-serif" font-size="20" fill="#45403a">Filipino</text>
    <rect x="680" width="14" height="14" fill="#d63d2a"/>
    <text x="708" y="13" font-family="-apple-system,sans-serif" font-size="20" fill="#45403a">Mexican</text>
    <rect x="820" width="14" height="14" fill="#1f7a6a"/>
    <text x="848" y="13" font-family="-apple-system,sans-serif" font-size="20" fill="#45403a">Greek</text>
    <rect x="920" width="14" height="14" fill="#8a4a25"/>
    <text x="948" y="13" font-family="-apple-system,sans-serif" font-size="20" fill="#45403a">Persian</text>
    <rect x="1050" width="14" height="14" fill="#6b2456"/>
    <text x="1078" y="13" font-family="-apple-system,sans-serif" font-size="20" fill="#45403a">Korean</text>
    <rect x="1170" width="14" height="14" fill="#4a8b8b"/>
    <text x="1198" y="13" font-family="-apple-system,sans-serif" font-size="20" fill="#45403a">Vietnamese</text>
  </g>
  <text x="80" y="445" font-family="ui-monospace,Menlo,monospace" font-size="22" fill="#7a746a">nowservingto.com</text>
</svg>
